<?xml version="1.0" standalone="no"?><!-- Generator: Gravit.io --><svg xmlns="http://www.w3.org/2000/svg" xmlns:xlink="http://www.w3.org/1999/xlink" style="isolation:isolate" viewBox="683 392 598 330" width="598" height="330"><rect x="683" y="392" width="598" height="330" transform="matrix(1,0,0,1,0,0)" fill="rgb(255,255,255)"/><clipPath id="_clipPath_38UFNvPZuHYyi55t5pAGSMTxP099rIog"><rect x="683" y="392" width="598" height="330" transform="matrix(1,0,0,1,0,0)" fill="rgb(255,255,255)"/></clipPath><g clip-path="url(#_clipPath_38UFNvPZuHYyi55t5pAGSMTxP099rIog)"><g id="Group"><g id="UsefulTools Badges"><defs><linearGradient id="_lgradient_9" x1="0.005335581494331444" y1="0.02366272458984492" x2="0.9934102689543777" y2="0.9939258190121856"><stop offset="1.7391304347826086%" style="stop-color:#BF583B"/><stop offset="100%" style="stop-color:#C703D9"/></linearGradient></defs><path d="M 776.307 432.939 L 1185.693 432.939 C 1193.497 432.939 1199.833 439.275 1199.833 447.079 L 1199.833 519.799 C 1199.833 527.603 1193.497 533.939 1185.693 533.939 L 776.307 533.939 C 768.503 533.939 762.167 527.603 762.167 519.799 L 762.167 447.079 C 762.167 439.275 768.503 432.939 776.307 432.939 Z" style="stroke:none;fill:url(#_lgradient_9);stroke-miterlimit:10;"/><defs><linearGradient id="_lgradient_10" x1="-0.03586956521739127" y1="0.21445256524087686" x2="1.1543478260869573" y2="1.8244525652408772"><stop offset="0%" style="stop-color:#007BFF"/><stop offset="100%" style="stop-color:#000000"/></linearGradient></defs><path d="M 781.25 441.182 L 1180.75 441.182 C 1185.089 441.182 1188.611 444.705 1188.611 449.043 L 1188.611 517.836 C 1188.611 522.174 1185.089 525.697 1180.75 525.697 L 781.25 525.697 C 776.911 525.697 773.389 522.174 773.389 517.836 L 773.389 449.043 C 773.389 444.705 776.911 441.182 781.25 441.182 Z" style="stroke:none;fill:url(#_lgradient_10);stroke-miterlimit:10;"/><clipPath id="_clipPath_YYLIks9ZUvalHtU3PYWvfcOhfBG0MZoL"><path d="M 781.25 441.182 L 1180.75 441.182 C 1185.089 441.182 1188.611 444.705 1188.611 449.043 L 1188.611 517.836 C 1188.611 522.174 1185.089 525.697 1180.75 525.697 L 781.25 525.697 C 776.911 525.697 773.389 522.174 773.389 517.836 L 773.389 449.043 C 773.389 444.705 776.911 441.182 781.25 441.182 Z" style="stroke:black;fill:white;stroke-miterlimit:10;"/></clipPath><g clip-path="url(#_clipPath_YYLIks9ZUvalHtU3PYWvfcOhfBG0MZoL)"><g id="Group"><g id="Usefultools Wrench"><path d=" M 810.011 508.887 C 809.336 510.143 808.157 511.09 806.742 511.536 C 805.321 511.968 803.771 511.865 802.43 511.233 C 801.088 510.601 800.076 509.497 799.6 508.172 C 799.139 506.842 799.249 505.391 799.924 504.135 L 814.555 476.696 C 815.23 475.44 825.506 480.327 824.831 481.583 L 810.011 508.887 Z  M 819.209 468.247 C 821.947 470.175 825.319 471.787 829.296 472.999 L 836.359 459.856 C 839.854 463.752 840.726 469.371 838.13 474.201 C 834.629 480.717 826.136 483.345 819.178 480.067 C 812.219 476.789 809.412 468.838 812.913 462.322 C 815.509 457.492 820.847 454.798 826.272 455.104 L 819.209 468.247 Z " fill-rule="evenodd" fill="rgb(255,255,255)" vector-effect="non-scaling-stroke" stroke-width="3.74" stroke="rgb(255,255,255)" stroke-linejoin="round" stroke-linecap="round" stroke-miterlimit="3"/></g><path d=" M 886.22 467.529 L 893.846 467.529 L 893.846 489.39 L 893.846 489.39 Q 893.846 493.134 892.057 495.953 L 892.057 495.953 L 892.057 495.953 Q 890.267 498.772 886.886 500.275 L 886.886 500.275 L 886.886 500.275 Q 883.505 501.777 878.889 501.777 L 878.889 501.777 L 878.889 501.777 Q 871.929 501.777 868.078 498.437 L 868.078 498.437 L 868.078 498.437 Q 864.228 495.098 864.228 489.298 L 864.228 489.298 L 864.228 467.529 L 871.855 467.529 L 871.855 488.211 L 871.855 488.211 Q 871.855 492.117 873.533 493.943 L 873.533 493.943 L 873.533 493.943 Q 875.211 495.768 879.087 495.768 L 879.087 495.768 L 879.087 495.768 Q 882.838 495.768 884.529 493.931 L 884.529 493.931 L 884.529 493.931 Q 886.22 492.094 886.22 488.165 L 886.22 488.165 L 886.22 467.529 Z  M 922.425 493.642 L 922.425 493.642 L 922.425 493.642 Q 922.425 497.617 919.476 499.697 L 919.476 499.697 L 919.476 499.697 Q 916.526 501.777 910.652 501.777 L 910.652 501.777 L 910.652 501.777 Q 907.641 501.777 905.518 501.395 L 905.518 501.395 L 905.518 501.395 Q 903.396 501.014 901.544 500.275 L 901.544 500.275 L 901.544 494.451 L 901.544 494.451 Q 903.642 495.375 906.271 495.999 L 906.271 495.999 L 906.271 495.999 Q 908.9 496.623 910.899 496.623 L 910.899 496.623 L 910.899 496.623 Q 914.996 496.623 914.996 494.405 L 914.996 494.405 L 914.996 494.405 Q 914.996 493.573 914.453 493.053 L 914.453 493.053 L 914.453 493.053 Q 913.91 492.533 912.577 491.874 L 912.577 491.874 L 912.577 491.874 Q 911.244 491.216 909.023 490.338 L 909.023 490.338 L 909.023 490.338 Q 905.839 489.09 904.346 488.027 L 904.346 488.027 L 904.346 488.027 Q 902.852 486.964 902.174 485.589 L 902.174 485.589 L 902.174 485.589 Q 901.495 484.214 901.495 482.203 L 901.495 482.203 L 901.495 482.203 Q 901.495 478.76 904.346 476.876 L 904.346 476.876 L 904.346 476.876 Q 907.197 474.993 912.429 474.993 L 912.429 474.993 L 912.429 474.993 Q 917.415 474.993 922.129 477.027 L 922.129 477.027 L 919.858 482.111 L 919.858 482.111 Q 917.785 481.279 915.983 480.747 L 915.983 480.747 L 915.983 480.747 Q 914.182 480.216 912.306 480.216 L 912.306 480.216 L 912.306 480.216 Q 908.974 480.216 908.974 481.903 L 908.974 481.903 L 908.974 481.903 Q 908.974 482.85 910.047 483.543 L 910.047 483.543 L 910.047 483.543 Q 911.121 484.237 914.749 485.6 L 914.749 485.6 L 914.749 485.6 Q 917.983 486.825 919.488 487.888 L 919.488 487.888 L 919.488 487.888 Q 920.994 488.951 921.71 490.338 L 921.71 490.338 L 921.71 490.338 Q 922.425 491.724 922.425 493.642 Z  M 940.811 480.008 L 940.811 480.008 L 940.811 480.008 Q 938.416 480.008 937.059 481.429 L 937.059 481.429 L 937.059 481.429 Q 935.701 482.85 935.504 485.461 L 935.504 485.461 L 946.068 485.461 L 946.068 485.461 Q 946.019 482.85 944.612 481.429 L 944.612 481.429 L 944.612 481.429 Q 943.205 480.008 940.811 480.008 Z  M 941.872 501.777 L 941.872 501.777 L 941.872 501.777 Q 935.208 501.777 931.456 498.333 L 931.456 498.333 L 931.456 498.333 Q 927.704 494.89 927.704 488.581 L 927.704 488.581 L 927.704 488.581 Q 927.704 482.087 931.172 478.54 L 931.172 478.54 L 931.172 478.54 Q 934.64 474.993 940.761 474.993 L 940.761 474.993 L 940.761 474.993 Q 946.611 474.993 949.869 478.113 L 949.869 478.113 L 949.869 478.113 Q 953.127 481.232 953.127 486.732 L 953.127 486.732 L 953.127 490.153 L 935.331 490.153 L 935.331 490.153 Q 935.455 493.157 937.232 494.844 L 937.232 494.844 L 937.232 494.844 Q 939.009 496.531 942.217 496.531 L 942.217 496.531 L 942.217 496.531 Q 944.71 496.531 946.932 496.046 L 946.932 496.046 L 946.932 496.046 Q 949.153 495.56 951.572 494.497 L 951.572 494.497 L 951.572 499.951 L 951.572 499.951 Q 949.597 500.875 947.351 501.326 L 947.351 501.326 L 947.351 501.326 Q 945.105 501.777 941.872 501.777 Z  M 975.585 475.478 L 975.585 480.77 L 969.069 480.77 L 969.069 501.314 L 961.541 501.314 L 961.541 480.77 L 957.394 480.77 L 957.394 477.373 L 961.541 475.478 L 961.541 473.583 L 961.541 473.583 Q 961.541 469.169 963.861 467.136 L 963.861 467.136 L 963.861 467.136 Q 966.181 465.102 971.29 465.102 L 971.29 465.102 L 971.29 465.102 Q 975.19 465.102 978.226 466.188 L 978.226 466.188 L 976.301 471.365 L 976.301 471.365 Q 974.03 470.695 972.105 470.695 L 972.105 470.695 L 972.105 470.695 Q 970.5 470.695 969.785 471.584 L 969.785 471.584 L 969.785 471.584 Q 969.069 472.474 969.069 473.861 L 969.069 473.861 L 969.069 475.478 L 975.585 475.478 Z  M 1006.311 501.314 L 1000.535 501.314 L 999.524 498.01 L 999.129 498.01 L 999.129 498.01 Q 997.919 499.812 995.698 500.795 L 995.698 500.795 L 995.698 500.795 Q 993.476 501.777 990.638 501.777 L 990.638 501.777 L 990.638 501.777 Q 985.776 501.777 983.307 499.339 L 983.307 499.339 L 983.307 499.339 Q 980.839 496.901 980.839 492.325 L 980.839 492.325 L 980.839 475.478 L 988.367 475.478 L 988.367 490.569 L 988.367 490.569 Q 988.367 493.365 989.429 494.763 L 989.429 494.763 L 989.429 494.763 Q 990.49 496.161 992.81 496.161 L 992.81 496.161 L 992.81 496.161 Q 995.969 496.161 997.376 494.185 L 997.376 494.185 L 997.376 494.185 Q 998.783 492.209 998.783 487.634 L 998.783 487.634 L 998.783 475.478 L 1006.311 475.478 L 1006.311 501.314 Z  M 1022.821 465.356 L 1022.821 501.314 L 1015.293 501.314 L 1015.293 465.356 L 1022.821 465.356 Z  M 1046.315 473.491 L 1046.315 501.314 L 1038.664 501.314 L 1038.664 473.491 L 1028.865 473.491 L 1028.865 467.529 L 1056.114 467.529 L 1056.114 473.491 L 1046.315 473.491 Z  M 1068.156 488.35 L 1068.156 488.35 L 1068.156 488.35 Q 1068.156 492.186 1069.501 494.151 L 1069.501 494.151 L 1069.501 494.151 Q 1070.846 496.115 1073.882 496.115 L 1073.882 496.115 L 1073.882 496.115 Q 1076.893 496.115 1078.214 494.162 L 1078.214 494.162 L 1078.214 494.162 Q 1079.534 492.209 1079.534 488.35 L 1079.534 488.35 L 1079.534 488.35 Q 1079.534 484.514 1078.201 482.596 L 1078.201 482.596 L 1078.201 482.596 Q 1076.869 480.678 1073.833 480.678 L 1073.833 480.678 L 1073.833 480.678 Q 1070.821 480.678 1069.489 482.584 L 1069.489 482.584 L 1069.489 482.584 Q 1068.156 484.491 1068.156 488.35 Z  M 1087.235 488.35 L 1087.235 488.35 L 1087.235 488.35 Q 1087.235 494.659 1083.681 498.218 L 1083.681 498.218 L 1083.681 498.218 Q 1080.127 501.777 1073.783 501.777 L 1073.783 501.777 L 1073.783 501.777 Q 1069.81 501.777 1066.774 500.147 L 1066.774 500.147 L 1066.774 500.147 Q 1063.738 498.518 1062.109 495.468 L 1062.109 495.468 L 1062.109 495.468 Q 1060.48 492.417 1060.48 488.35 L 1060.48 488.35 L 1060.48 488.35 Q 1060.48 482.018 1064.009 478.506 L 1064.009 478.506 L 1064.009 478.506 Q 1067.539 474.993 1073.931 474.993 L 1073.931 474.993 L 1073.931 474.993 Q 1077.905 474.993 1080.941 476.611 L 1080.941 476.611 L 1080.941 476.611 Q 1083.977 478.228 1085.606 481.256 L 1085.606 481.256 L 1085.606 481.256 Q 1087.235 484.283 1087.235 488.35 Z  M 1100.536 488.35 L 1100.536 488.35 L 1100.536 488.35 Q 1100.536 492.186 1101.881 494.151 L 1101.881 494.151 L 1101.881 494.151 Q 1103.226 496.115 1106.262 496.115 L 1106.262 496.115 L 1106.262 496.115 Q 1109.273 496.115 1110.594 494.162 L 1110.594 494.162 L 1110.594 494.162 Q 1111.914 492.209 1111.914 488.35 L 1111.914 488.35 L 1111.914 488.35 Q 1111.914 484.514 1110.581 482.596 L 1110.581 482.596 L 1110.581 482.596 Q 1109.249 480.678 1106.213 480.678 L 1106.213 480.678 L 1106.213 480.678 Q 1103.201 480.678 1101.869 482.584 L 1101.869 482.584 L 1101.869 482.584 Q 1100.536 484.491 1100.536 488.35 Z  M 1119.615 488.35 L 1119.615 488.35 L 1119.615 488.35 Q 1119.615 494.659 1116.061 498.218 L 1116.061 498.218 L 1116.061 498.218 Q 1112.507 501.777 1106.163 501.777 L 1106.163 501.777 L 1106.163 501.777 Q 1102.189 501.777 1099.154 500.147 L 1099.154 500.147 L 1099.154 500.147 Q 1096.118 498.518 1094.489 495.468 L 1094.489 495.468 L 1094.489 495.468 Q 1092.86 492.417 1092.86 488.35 L 1092.86 488.35 L 1092.86 488.35 Q 1092.86 482.018 1096.389 478.506 L 1096.389 478.506 L 1096.389 478.506 Q 1099.919 474.993 1106.311 474.993 L 1106.311 474.993 L 1106.311 474.993 Q 1110.285 474.993 1113.321 476.611 L 1113.321 476.611 L 1113.321 476.611 Q 1116.357 478.228 1117.986 481.256 L 1117.986 481.256 L 1117.986 481.256 Q 1119.615 484.283 1119.615 488.35 Z  M 1134.446 465.356 L 1134.446 501.314 L 1126.918 501.314 L 1126.918 465.356 L 1134.446 465.356 Z  M 1162.679 493.642 L 1162.679 493.642 L 1162.679 493.642 Q 1162.679 497.617 1159.73 499.697 L 1159.73 499.697 L 1159.73 499.697 Q 1156.78 501.777 1150.906 501.777 L 1150.906 501.777 L 1150.906 501.777 Q 1147.895 501.777 1145.772 501.395 L 1145.772 501.395 L 1145.772 501.395 Q 1143.65 501.014 1141.798 500.275 L 1141.798 500.275 L 1141.798 494.451 L 1141.798 494.451 Q 1143.896 495.375 1146.525 495.999 L 1146.525 495.999 L 1146.525 495.999 Q 1149.154 496.623 1151.153 496.623 L 1151.153 496.623 L 1151.153 496.623 Q 1155.25 496.623 1155.25 494.405 L 1155.25 494.405 L 1155.25 494.405 Q 1155.25 493.573 1154.707 493.053 L 1154.707 493.053 L 1154.707 493.053 Q 1154.164 492.533 1152.831 491.874 L 1152.831 491.874 L 1152.831 491.874 Q 1151.499 491.216 1149.277 490.338 L 1149.277 490.338 L 1149.277 490.338 Q 1146.093 489.09 1144.6 488.027 L 1144.6 488.027 L 1144.6 488.027 Q 1143.107 486.964 1142.428 485.589 L 1142.428 485.589 L 1142.428 485.589 Q 1141.749 484.214 1141.749 482.203 L 1141.749 482.203 L 1141.749 482.203 Q 1141.749 478.76 1144.6 476.876 L 1144.6 476.876 L 1144.6 476.876 Q 1147.451 474.993 1152.683 474.993 L 1152.683 474.993 L 1152.683 474.993 Q 1157.669 474.993 1162.383 477.027 L 1162.383 477.027 L 1160.113 482.111 L 1160.113 482.111 Q 1158.039 481.279 1156.237 480.747 L 1156.237 480.747 L 1156.237 480.747 Q 1154.436 480.216 1152.56 480.216 L 1152.56 480.216 L 1152.56 480.216 Q 1149.228 480.216 1149.228 481.903 L 1149.228 481.903 L 1149.228 481.903 Q 1149.228 482.85 1150.301 483.543 L 1150.301 483.543 L 1150.301 483.543 Q 1151.375 484.237 1155.003 485.6 L 1155.003 485.6 L 1155.003 485.6 Q 1158.237 486.825 1159.742 487.888 L 1159.742 487.888 L 1159.742 487.888 Q 1161.248 488.951 1161.964 490.338 L 1161.964 490.338 L 1161.964 490.338 Q 1162.679 491.724 1162.679 493.642 Z " fill-rule="evenodd" fill="rgb(255,255,255)"/></g></g></g><g transform="matrix(1,0,0,1,683,549)"><text transform="matrix(1,0,0,1,16.8,46.64)" style="font-family:&quot;Lato&quot;;font-weight:400;font-size:20px;font-style:normal;letter-spacing:0.3;fill:#222222;stroke:none;">Pretty useful list of </text><text transform="matrix(1,0,0,1,47.505,70.64)" style="font-family:&quot;Lato&quot;;font-weight:700;font-size:20px;font-style:normal;letter-spacing:0.3;fill:#222222;stroke:none;">UsefulTools</text></g><g transform="matrix(1,0,0,1,823,622)"><text transform="matrix(1,0,0,1,10.31,45.74)" style="font-family:&quot;Lato&quot;;font-weight:400;font-size:20px;font-style:normal;letter-spacing:0.3;fill:#222222;stroke:none;">A collection of </text><text transform="matrix(1,0,0,1,143.49,45.74)" style="font-family:&quot;Lato&quot;;font-weight:700;font-size:20px;font-style:normal;letter-spacing:0.3;fill:#222222;stroke:none;">Software, </text><text transform="matrix(1,0,0,1,64.155,69.74)" style="font-family:&quot;Lato&quot;;font-weight:700;font-size:20px;font-style:normal;letter-spacing:0.3;fill:#222222;stroke:none;">App, Service</text></g><g transform="matrix(1,0,0,1,1031,557)"><text transform="matrix(1,0,0,1,22.93,33.74)" style="font-family:&quot;Lato&quot;;font-weight:400;font-size:20px;font-style:normal;letter-spacing:0.3;fill:#222222;stroke:none;">Idea or proposal ? </text><text transform="matrix(1,0,0,1,16.2,57.74)" style="font-family:&quot;Lato&quot;;font-weight:400;font-size:20px;font-style:normal;letter-spacing:0.3;fill:#222222;stroke:none;">Issue / PullRequest </text><text transform="matrix(1,0,0,1,61.955,81.74)" style="font-family:&quot;Lato&quot;;font-weight:700;font-size:20px;font-style:normal;letter-spacing:0.3;fill:#222222;stroke:none;">are open</text></g></g></g></svg>